<svg width="1896" height="1004" viewBox="0 0 1896 1004" fill="none" xmlns="http://www.w3.org/2000/svg">
<path d="M1591.23 674.18C1579.6 674.18 1569.79 672.145 1561.8 668.076C1553.95 664.007 1547.92 658.266 1543.7 650.854C1539.63 643.442 1537.31 634.795 1536.73 624.912C1536.58 622.296 1536.51 619.099 1536.51 615.32C1536.51 611.541 1536.58 608.344 1536.73 605.728C1537.31 595.7 1539.71 587.053 1543.92 579.786C1548.28 572.374 1554.38 566.633 1562.23 562.564C1570.23 558.495 1579.89 556.46 1591.23 556.46C1602.56 556.46 1612.15 558.495 1620 562.564C1628 566.633 1634.1 572.374 1638.31 579.786C1642.67 587.053 1645.15 595.7 1645.73 605.728C1645.87 608.344 1645.94 611.541 1645.94 615.32C1645.94 619.099 1645.87 622.296 1645.73 624.912C1645.15 634.795 1642.75 643.442 1638.53 650.854C1634.46 658.266 1628.43 664.007 1620.44 668.076C1612.59 672.145 1602.85 674.18 1591.23 674.18ZM1591.23 652.598C1598.93 652.598 1604.89 650.2 1609.1 645.404C1613.32 640.463 1615.64 633.269 1616.08 623.822C1616.22 621.642 1616.3 618.808 1616.3 615.32C1616.3 611.832 1616.22 608.998 1616.08 606.818C1615.64 597.517 1613.32 590.395 1609.1 585.454C1604.89 580.513 1598.93 578.042 1591.23 578.042C1583.52 578.042 1577.57 580.513 1573.35 585.454C1569.14 590.395 1566.81 597.517 1566.37 606.818C1566.23 608.998 1566.16 611.832 1566.16 615.32C1566.16 618.808 1566.23 621.642 1566.37 623.822C1566.81 633.269 1569.14 640.463 1573.35 645.404C1577.57 650.2 1583.52 652.598 1591.23 652.598Z" fill="#002046"/>
<path d="M1453.82 674.18C1446.27 674.18 1439.44 672.726 1433.33 669.82C1427.23 666.768 1422.36 662.771 1418.73 657.83C1415.24 652.743 1413.49 647.075 1413.49 640.826C1413.49 630.652 1417.56 622.586 1425.7 616.628C1433.99 610.524 1444.89 606.454 1458.4 604.42L1488.27 600.06V595.482C1488.27 589.378 1486.74 584.654 1483.69 581.312C1480.64 577.969 1475.41 576.298 1467.99 576.298C1462.76 576.298 1458.47 577.388 1455.13 579.568C1451.93 581.602 1449.54 584.364 1447.94 587.852C1446.78 589.741 1445.1 590.686 1442.92 590.686H1425.7C1424.1 590.686 1422.87 590.25 1422 589.378C1421.27 588.506 1420.91 587.343 1420.91 585.89C1421.05 583.564 1422 580.73 1423.74 577.388C1425.48 574.045 1428.25 570.848 1432.02 567.796C1435.8 564.598 1440.67 561.91 1446.63 559.73C1452.59 557.55 1459.78 556.46 1468.21 556.46C1477.37 556.46 1485.07 557.622 1491.32 559.948C1497.71 562.128 1502.8 565.107 1506.58 568.886C1510.36 572.664 1513.12 577.097 1514.86 582.184C1516.61 587.27 1517.48 592.648 1517.48 598.316V666.768C1517.48 668.221 1516.97 669.456 1515.95 670.474C1514.94 671.491 1513.7 672 1512.25 672H1494.59C1492.99 672 1491.68 671.491 1490.67 670.474C1489.79 669.456 1489.36 668.221 1489.36 666.768V658.266C1487.47 661.027 1484.93 663.643 1481.73 666.114C1478.53 668.439 1474.61 670.401 1469.96 672C1465.45 673.453 1460.07 674.18 1453.82 674.18ZM1461.24 653.47C1466.32 653.47 1470.9 652.38 1474.97 650.2C1479.18 648.02 1482.45 644.677 1484.78 640.172C1487.25 635.521 1488.49 629.708 1488.49 622.732V618.154L1466.69 621.642C1458.11 622.95 1451.72 625.057 1447.5 627.964C1443.29 630.87 1441.18 634.431 1441.18 638.646C1441.18 641.843 1442.12 644.604 1444.01 646.93C1446.05 649.11 1448.59 650.781 1451.64 651.944C1454.7 652.961 1457.89 653.47 1461.24 653.47ZM1480.2 543.38C1476.42 543.38 1473.37 542.798 1471.05 541.636C1468.72 540.328 1466.54 539.02 1464.51 537.712C1462.62 536.404 1460.51 535.75 1458.18 535.75C1456.29 535.75 1454.91 536.331 1454.04 537.494C1453.32 538.511 1452.59 539.601 1451.86 540.764C1451.14 541.781 1449.97 542.29 1448.37 542.29H1438.35C1437.33 542.29 1436.46 541.926 1435.73 541.2C1435 540.473 1434.64 539.601 1434.64 538.584C1434.64 536.404 1435 534.006 1435.73 531.39C1436.6 528.628 1437.91 526.012 1439.65 523.542C1441.4 521.071 1443.58 519.109 1446.19 517.656C1448.96 516.057 1452.15 515.258 1455.79 515.258C1459.71 515.258 1462.83 515.912 1465.16 517.22C1467.49 518.382 1469.59 519.618 1471.48 520.926C1473.52 522.234 1475.7 522.888 1478.02 522.888C1479.91 522.888 1481.22 522.306 1481.95 521.144C1482.82 519.981 1483.62 518.891 1484.34 517.874C1485.07 516.711 1486.23 516.13 1487.83 516.13H1497.86C1499.02 516.13 1499.89 516.566 1500.48 517.438C1501.2 518.164 1501.57 519.036 1501.57 520.054C1501.57 522.234 1501.13 524.704 1500.26 527.466C1499.53 530.082 1498.3 532.625 1496.55 535.096C1494.81 537.566 1492.56 539.601 1489.79 541.2C1487.18 542.653 1483.98 543.38 1480.2 543.38Z" fill="#002046"/>
<path d="M1349.56 719.96C1345.49 719.815 1341.85 719.088 1338.66 717.78C1335.61 716.472 1333.35 714.946 1331.9 713.202C1330.59 711.458 1330.66 710.005 1332.12 708.842L1335.82 705.572C1337.13 704.409 1338.22 704.046 1339.09 704.482C1340.11 705.063 1341.35 705.79 1342.8 706.662C1344.4 707.679 1346.65 708.188 1349.56 708.188C1351.74 708.188 1353.63 707.461 1355.23 706.008C1356.82 704.7 1357.62 702.956 1357.62 700.776C1357.62 698.741 1356.82 697.07 1355.23 695.762C1353.77 694.454 1351.88 693.8 1349.56 693.8C1347.52 693.8 1345.78 694.018 1344.33 694.454C1342.87 695.035 1341.56 695.399 1340.4 695.544C1339.24 695.835 1338.08 695.399 1336.91 694.236L1332.99 690.312C1332.12 689.295 1331.83 688.205 1332.12 687.042C1332.41 686.025 1332.84 684.862 1333.43 683.554L1338 673.09C1325.5 671.201 1315.55 666.041 1308.14 657.612C1300.73 649.037 1296.8 637.847 1296.37 624.04C1296.22 621.86 1296.15 619.026 1296.15 615.538C1296.15 611.905 1296.22 608.925 1296.37 606.6C1296.8 595.991 1299.2 586.98 1303.56 579.568C1308.06 572.011 1314.24 566.27 1322.09 562.346C1330.08 558.422 1339.31 556.46 1349.78 556.46C1359.08 556.46 1367 557.768 1373.54 560.384C1380.08 563 1385.45 566.27 1389.67 570.194C1393.88 574.118 1397.01 578.26 1399.04 582.62C1401.22 586.835 1402.39 590.686 1402.53 594.174C1402.68 595.773 1402.17 597.081 1401.01 598.098C1399.99 598.97 1398.75 599.406 1397.3 599.406H1378.12C1376.66 599.406 1375.5 599.043 1374.63 598.316C1373.9 597.589 1373.17 596.499 1372.45 595.046C1370.27 589.233 1367.36 585.163 1363.73 582.838C1360.24 580.367 1355.73 579.132 1350.21 579.132C1342.94 579.132 1337.13 581.457 1332.77 586.108C1328.56 590.613 1326.3 597.807 1326.01 607.69C1325.72 613.213 1325.72 618.299 1326.01 622.95C1326.3 632.978 1328.56 640.245 1332.77 644.75C1337.13 649.255 1342.94 651.508 1350.21 651.508C1355.88 651.508 1360.46 650.345 1363.95 648.02C1367.43 645.549 1370.27 641.407 1372.45 635.594C1373.17 634.141 1373.9 633.051 1374.63 632.324C1375.5 631.597 1376.66 631.234 1378.12 631.234H1397.3C1398.75 631.234 1399.99 631.743 1401.01 632.76C1402.17 633.632 1402.68 634.867 1402.53 636.466C1402.39 639.663 1401.3 643.442 1399.26 647.802C1397.23 652.017 1394.17 656.159 1390.11 660.228C1386.04 664.152 1380.73 667.495 1374.19 670.256C1367.65 672.872 1359.73 674.18 1350.43 674.18L1345.85 683.554C1346.72 683.118 1347.89 682.755 1349.34 682.464C1350.94 682.173 1352.32 682.028 1353.48 682.028C1358.57 682.028 1362.64 683.772 1365.69 687.26C1368.89 690.748 1370.49 695.181 1370.49 700.558C1370.49 706.081 1368.67 710.731 1365.04 714.51C1361.4 718.289 1356.24 720.105 1349.56 719.96Z" fill="#002046"/>
<path d="M1213.46 674.18C1205.9 674.18 1199.07 672.727 1192.97 669.82C1186.87 666.768 1182 662.771 1178.36 657.83C1174.88 652.743 1173.13 647.075 1173.13 640.826C1173.13 630.653 1177.2 622.587 1185.34 616.628C1193.62 610.524 1204.52 606.455 1218.04 604.42L1247.91 600.06V595.482C1247.91 589.378 1246.38 584.655 1243.33 581.312C1240.28 577.969 1235.04 576.298 1227.63 576.298C1222.4 576.298 1218.11 577.388 1214.77 579.568C1211.57 581.603 1209.17 584.364 1207.58 587.852C1206.41 589.741 1204.74 590.686 1202.56 590.686H1185.34C1183.74 590.686 1182.51 590.25 1181.63 589.378C1180.91 588.506 1180.54 587.343 1180.54 585.89C1180.69 583.565 1181.63 580.731 1183.38 577.388C1185.12 574.045 1187.88 570.848 1191.66 567.796C1195.44 564.599 1200.31 561.91 1206.27 559.73C1212.23 557.55 1219.42 556.46 1227.85 556.46C1237.01 556.46 1244.71 557.623 1250.96 559.948C1257.35 562.128 1262.44 565.107 1266.22 568.886C1270 572.665 1272.76 577.097 1274.5 582.184C1276.25 587.271 1277.12 592.648 1277.12 598.316V666.768C1277.12 668.221 1276.61 669.457 1275.59 670.474C1274.57 671.491 1273.34 672 1271.89 672H1254.23C1252.63 672 1251.32 671.491 1250.3 670.474C1249.43 669.457 1249 668.221 1249 666.768V658.266C1247.11 661.027 1244.56 663.643 1241.37 666.114C1238.17 668.439 1234.24 670.401 1229.59 672C1225.09 673.453 1219.71 674.18 1213.46 674.18ZM1220.87 653.47C1225.96 653.47 1230.54 652.38 1234.61 650.2C1238.82 648.02 1242.09 644.677 1244.42 640.172C1246.89 635.521 1248.12 629.708 1248.12 622.732V618.154L1226.32 621.642C1217.75 622.95 1211.35 625.057 1207.14 627.964C1202.93 630.871 1200.82 634.431 1200.82 638.646C1200.82 641.843 1201.76 644.605 1203.65 646.93C1205.69 649.11 1208.23 650.781 1211.28 651.944C1214.33 652.961 1217.53 653.47 1220.87 653.47Z" fill="#002046"/>
<path d="M1100.94 672C1099.48 672 1098.25 671.491 1097.23 670.474C1096.21 669.456 1095.7 668.221 1095.7 666.768V564.09C1095.7 562.491 1096.21 561.183 1097.23 560.166C1098.25 559.148 1099.48 558.64 1100.94 558.64H1118.59C1120.05 558.64 1121.28 559.148 1122.3 560.166C1123.46 561.183 1124.04 562.491 1124.04 564.09V573.028C1127.39 568.377 1131.67 564.816 1136.91 562.346C1142.28 559.875 1148.46 558.64 1155.44 558.64H1164.37C1165.97 558.64 1167.21 559.148 1168.08 560.166C1169.1 561.183 1169.61 562.418 1169.61 563.872V579.568C1169.61 581.021 1169.1 582.256 1168.08 583.274C1167.21 584.291 1165.97 584.8 1164.37 584.8H1147.37C1140.39 584.8 1134.94 586.762 1131.02 590.686C1127.24 594.61 1125.35 599.987 1125.35 606.818V666.768C1125.35 668.221 1124.84 669.456 1123.83 670.474C1122.81 671.491 1121.5 672 1119.9 672H1100.94Z" fill="#002046"/>
<path d="M1021.19 674.18C1009.56 674.18 999.754 672.145 991.761 668.076C983.913 664.007 977.881 658.266 973.667 650.854C969.597 643.442 967.272 634.795 966.691 624.912C966.545 622.296 966.473 619.099 966.473 615.32C966.473 611.541 966.545 608.344 966.691 605.728C967.272 595.7 969.67 587.053 973.885 579.786C978.245 572.374 984.349 566.633 992.197 562.564C1000.19 558.495 1009.85 556.46 1021.19 556.46C1032.53 556.46 1042.12 558.495 1049.97 562.564C1057.96 566.633 1064.06 572.374 1068.28 579.786C1072.64 587.053 1075.11 595.7 1075.69 605.728C1075.84 608.344 1075.91 611.541 1075.91 615.32C1075.91 619.099 1075.84 622.296 1075.69 624.912C1075.11 634.795 1072.71 643.442 1068.5 650.854C1064.43 658.266 1058.4 664.007 1050.4 668.076C1042.55 672.145 1032.82 674.18 1021.19 674.18ZM1021.19 652.598C1028.89 652.598 1034.85 650.2 1039.07 645.404C1043.28 640.463 1045.61 633.269 1046.04 623.822C1046.19 621.642 1046.26 618.808 1046.26 615.32C1046.26 611.832 1046.19 608.998 1046.04 606.818C1045.61 597.517 1043.28 590.395 1039.07 585.454C1034.85 580.513 1028.89 578.042 1021.19 578.042C1013.49 578.042 1007.53 580.513 1003.31 585.454C999.1 590.395 996.775 597.517 996.339 606.818C996.193 608.998 996.121 611.832 996.121 615.32C996.121 618.808 996.193 621.642 996.339 623.822C996.775 633.269 999.1 640.463 1003.31 645.404C1007.53 650.2 1013.49 652.598 1021.19 652.598Z" fill="#002046"/>
<path d="M887.864 674.18C874.348 674.18 862.866 671.854 853.42 667.204C844.118 662.408 836.997 655.65 832.056 646.93C827.114 638.064 824.353 627.455 823.772 615.102C823.626 609.143 823.554 602.748 823.554 595.918C823.554 589.087 823.626 582.547 823.772 576.298C824.353 564.09 827.114 553.553 832.056 544.688C837.142 535.822 844.336 529.064 853.638 524.414C863.084 519.618 874.493 517.22 887.864 517.22C897.746 517.22 906.612 518.528 914.46 521.144C922.308 523.76 928.993 527.393 934.516 532.044C940.038 536.549 944.326 541.854 947.378 547.958C950.43 554.062 952.028 560.674 952.174 567.796C952.319 569.104 951.883 570.194 950.866 571.066C949.994 571.938 948.904 572.374 947.596 572.374H926.886C925.287 572.374 923.979 572.01 922.962 571.284C921.944 570.412 921.218 569.031 920.782 567.142C918.456 557.55 914.46 551.01 908.792 547.522C903.124 544.034 896.075 542.29 887.646 542.29C877.908 542.29 870.133 545.051 864.32 550.574C858.506 555.951 855.382 564.889 854.946 577.388C854.51 589.305 854.51 601.513 854.946 614.012C855.382 626.51 858.506 635.521 864.32 641.044C870.133 646.421 877.908 649.11 887.646 649.11C896.075 649.11 903.124 647.366 908.792 643.878C914.46 640.244 918.456 633.704 920.782 624.258C921.218 622.223 921.944 620.842 922.962 620.116C923.979 619.389 925.287 619.026 926.886 619.026H947.596C948.904 619.026 949.994 619.462 950.866 620.334C951.883 621.206 952.319 622.296 952.174 623.604C952.028 630.725 950.43 637.338 947.378 643.442C944.326 649.546 940.038 654.923 934.516 659.574C928.993 664.079 922.308 667.64 914.46 670.256C906.612 672.872 897.746 674.18 887.864 674.18Z" fill="#002046"/>
<path d="M1263.68 482.18C1252.06 482.18 1242.25 480.145 1234.25 476.076C1226.4 472.007 1220.37 466.266 1216.16 458.854C1212.09 451.442 1209.76 442.795 1209.18 432.912C1209.04 430.296 1208.96 427.099 1208.96 423.32C1208.96 419.541 1209.04 416.344 1209.18 413.728C1209.76 403.7 1212.16 395.053 1216.38 387.786C1220.74 380.374 1226.84 374.633 1234.69 370.564C1242.68 366.495 1252.35 364.46 1263.68 364.46C1275.02 364.46 1284.61 366.495 1292.46 370.564C1300.45 374.633 1306.56 380.374 1310.77 387.786C1315.13 395.053 1317.6 403.7 1318.18 413.728C1318.33 416.344 1318.4 419.541 1318.4 423.32C1318.4 427.099 1318.33 430.296 1318.18 432.912C1317.6 442.795 1315.2 451.442 1310.99 458.854C1306.92 466.266 1300.89 472.007 1292.89 476.076C1285.05 480.145 1275.31 482.18 1263.68 482.18ZM1263.68 460.598C1271.38 460.598 1277.34 458.2 1281.56 453.404C1285.77 448.463 1288.1 441.269 1288.53 431.822C1288.68 429.642 1288.75 426.808 1288.75 423.32C1288.75 419.832 1288.68 416.998 1288.53 414.818C1288.1 405.517 1285.77 398.395 1281.56 393.454C1277.34 388.513 1271.38 386.042 1263.68 386.042C1255.98 386.042 1250.02 388.513 1245.81 393.454C1241.59 398.395 1239.27 405.517 1238.83 414.818C1238.68 416.998 1238.61 419.832 1238.61 423.32C1238.61 426.808 1238.68 429.642 1238.83 431.822C1239.27 441.269 1241.59 448.463 1245.81 453.404C1250.02 458.2 1255.98 460.598 1263.68 460.598Z" fill="#002046"/>
<path d="M1136.88 480C1134.55 480 1132.81 479.491 1131.65 478.474C1130.63 477.311 1129.76 476.003 1129.03 474.55L1088.27 373.398C1087.97 372.671 1087.83 372.017 1087.83 371.436C1087.83 370.128 1088.27 369.038 1089.14 368.166C1090.15 367.149 1091.32 366.64 1092.63 366.64H1110.28C1112.03 366.64 1113.34 367.149 1114.21 368.166C1115.08 369.038 1115.66 369.91 1115.95 370.782L1144.95 447.3L1173.94 370.782C1174.23 369.91 1174.81 369.038 1175.68 368.166C1176.56 367.149 1177.86 366.64 1179.61 366.64H1197.48C1198.65 366.64 1199.66 367.149 1200.54 368.166C1201.55 369.038 1202.06 370.128 1202.06 371.436C1202.06 372.017 1201.99 372.671 1201.84 373.398L1160.86 474.55C1160.28 476.003 1159.41 477.311 1158.24 478.474C1157.08 479.491 1155.34 480 1153.01 480H1136.88Z" fill="#002046"/>
<path d="M1026.3 482.18C1014.67 482.18 1004.86 480.145 996.87 476.076C989.022 472.007 982.991 466.266 978.776 458.854C974.707 451.442 972.381 442.795 971.8 432.912C971.655 430.296 971.582 427.099 971.582 423.32C971.582 419.541 971.655 416.344 971.8 413.728C972.381 403.7 974.779 395.053 978.994 387.786C983.354 380.374 989.458 374.633 997.306 370.564C1005.3 366.495 1014.96 364.46 1026.3 364.46C1037.64 364.46 1047.23 366.495 1055.08 370.564C1063.07 374.633 1069.17 380.374 1073.39 387.786C1077.75 395.053 1080.22 403.7 1080.8 413.728C1080.95 416.344 1081.02 419.541 1081.02 423.32C1081.02 427.099 1080.95 430.296 1080.8 432.912C1080.22 442.795 1077.82 451.442 1073.61 458.854C1069.54 466.266 1063.51 472.007 1055.51 476.076C1047.66 480.145 1037.93 482.18 1026.3 482.18ZM1026.3 460.598C1034 460.598 1039.96 458.2 1044.18 453.404C1048.39 448.463 1050.72 441.269 1051.15 431.822C1051.3 429.642 1051.37 426.808 1051.37 423.32C1051.37 419.832 1051.3 416.998 1051.15 414.818C1050.72 405.517 1048.39 398.395 1044.18 393.454C1039.96 388.513 1034 386.042 1026.3 386.042C1018.6 386.042 1012.64 388.513 1008.42 393.454C1004.21 398.395 1001.88 405.517 1001.45 414.818C1001.3 416.998 1001.23 419.832 1001.23 423.32C1001.23 426.808 1001.3 429.642 1001.45 431.822C1001.88 441.269 1004.21 448.463 1008.42 453.404C1012.64 458.2 1018.6 460.598 1026.3 460.598Z" fill="#002046"/>
<path d="M834.236 480C832.783 480 831.547 479.491 830.53 478.474C829.513 477.457 829.004 476.221 829.004 474.768V332.85C829.004 331.251 829.513 329.943 830.53 328.926C831.547 327.909 832.783 327.4 834.236 327.4H851.022C853.057 327.4 854.51 327.909 855.382 328.926C856.399 329.798 857.053 330.452 857.344 330.888L920.128 428.552V332.85C920.128 331.251 920.564 329.943 921.436 328.926C922.453 327.909 923.761 327.4 925.36 327.4H943.672C945.271 327.4 946.579 327.909 947.596 328.926C948.613 329.943 949.122 331.251 949.122 332.85V474.55C949.122 476.149 948.613 477.457 947.596 478.474C946.579 479.491 945.343 480 943.89 480H926.886C924.851 480 923.398 479.491 922.526 478.474C921.654 477.457 921 476.803 920.564 476.512L857.998 381.028V474.768C857.998 476.221 857.489 477.457 856.472 478.474C855.455 479.491 854.147 480 852.548 480H834.236Z" fill="#002046"/>
<rect x="240" y="268" width="466" height="466" rx="80" fill="url(#paint0_linear_11_23)"/>
<path d="M349.118 374.523C349.118 369.26 353.384 364.994 358.647 364.994C363.91 364.994 368.176 369.26 368.176 374.523V501.582H349.118V374.523Z" fill="white"/>
<path d="M596.882 501.582V374.523C596.882 369.26 592.616 364.994 587.353 364.994C582.09 364.994 577.824 369.26 577.824 374.523V501.582H596.882Z" fill="white"/>
<path d="M558.765 501.582V377.7C558.765 372.437 554.498 368.17 549.235 368.17C543.972 368.17 539.706 372.437 539.706 377.7V501.582H558.765Z" fill="white"/>
<path d="M520.647 501.582V415.817C520.647 410.554 516.381 406.288 511.118 406.288C505.855 406.288 501.588 410.554 501.588 415.817V501.582H520.647Z" fill="white"/>
<path d="M482.529 501.582V438.052C482.529 432.79 478.263 428.523 473 428.523C467.737 428.523 463.471 432.79 463.471 438.052V501.582H482.529Z" fill="white"/>
<path d="M444.412 501.582V415.817C444.412 410.554 440.145 406.288 434.882 406.288C429.619 406.288 425.353 410.554 425.353 415.817V501.582H444.412Z" fill="white"/>
<path d="M406.294 501.582V377.7C406.294 372.437 402.028 368.17 396.765 368.17C391.502 368.17 387.235 372.437 387.235 377.7V501.582H406.294Z" fill="white"/>
<path d="M311 400.994C311 395.731 315.266 391.464 320.529 391.464C325.792 391.464 330.059 395.731 330.059 400.994V489.935C330.059 495.198 325.792 499.464 320.529 499.464C315.266 499.464 311 495.198 311 489.935V400.994Z" fill="white"/>
<path d="M615.941 400.994C615.941 395.731 620.208 391.464 625.471 391.464C630.734 391.464 635 395.731 635 400.994V489.935C635 495.198 630.734 499.464 625.471 499.464C620.208 499.464 615.941 495.198 615.941 489.935V400.994Z" fill="white"/>
<path d="M349.117 516.405V523.817C349.117 529.08 353.384 533.346 358.647 533.346C363.91 533.346 368.176 529.08 368.176 523.817V516.405H349.117Z" fill="url(#paint1_linear_11_23)"/>
<path d="M387.235 516.405V562.994C387.235 568.256 391.501 572.523 396.764 572.523C402.027 572.523 406.294 568.256 406.294 562.994V516.405H387.235Z" fill="url(#paint2_linear_11_23)"/>
<path d="M425.352 516.405V600.052C425.352 605.315 429.619 609.582 434.882 609.582C440.145 609.582 444.411 605.315 444.411 600.052V516.405H425.352Z" fill="url(#paint3_linear_11_23)"/>
<path d="M463.47 516.405V632.876C463.47 638.139 467.737 642.405 473 642.405C478.263 642.405 482.529 638.139 482.529 632.876V516.405H463.47Z" fill="url(#paint4_linear_11_23)"/>
<path d="M501.588 516.405V600.052C501.588 605.315 505.854 609.582 511.117 609.582C516.38 609.582 520.647 605.315 520.647 600.052V516.405H501.588Z" fill="url(#paint5_linear_11_23)"/>
<path d="M539.705 516.405V562.994C539.705 568.256 543.972 572.523 549.235 572.523C554.498 572.523 558.764 568.256 558.764 562.994V516.405H539.705Z" fill="url(#paint6_linear_11_23)"/>
<path d="M577.823 516.405V523.817C577.823 529.08 582.089 533.346 587.352 533.346C592.615 533.346 596.882 529.08 596.882 523.817V516.405H577.823Z" fill="url(#paint7_linear_11_23)"/>
<defs>
<linearGradient id="paint0_linear_11_23" x1="473" y1="268" x2="473" y2="734" gradientUnits="userSpaceOnUse">
<stop stop-color="#162E4B"/>
<stop offset="1" stop-color="#000D1D"/>
</linearGradient>
<linearGradient id="paint1_linear_11_23" x1="473" y1="516.405" x2="473" y2="642.405" gradientUnits="userSpaceOnUse">
<stop stop-color="#6AE9FF"/>
<stop offset="1" stop-color="#00C2FF"/>
</linearGradient>
<linearGradient id="paint2_linear_11_23" x1="473" y1="516.405" x2="473" y2="642.405" gradientUnits="userSpaceOnUse">
<stop stop-color="#6AE9FF"/>
<stop offset="1" stop-color="#00C2FF"/>
</linearGradient>
<linearGradient id="paint3_linear_11_23" x1="473" y1="516.405" x2="473" y2="642.405" gradientUnits="userSpaceOnUse">
<stop stop-color="#6AE9FF"/>
<stop offset="1" stop-color="#00C2FF"/>
</linearGradient>
<linearGradient id="paint4_linear_11_23" x1="473" y1="516.405" x2="473" y2="642.405" gradientUnits="userSpaceOnUse">
<stop stop-color="#6AE9FF"/>
<stop offset="1" stop-color="#00C2FF"/>
</linearGradient>
<linearGradient id="paint5_linear_11_23" x1="473" y1="516.405" x2="473" y2="642.405" gradientUnits="userSpaceOnUse">
<stop stop-color="#6AE9FF"/>
<stop offset="1" stop-color="#00C2FF"/>
</linearGradient>
<linearGradient id="paint6_linear_11_23" x1="473" y1="516.405" x2="473" y2="642.405" gradientUnits="userSpaceOnUse">
<stop stop-color="#6AE9FF"/>
<stop offset="1" stop-color="#00C2FF"/>
</linearGradient>
<linearGradient id="paint7_linear_11_23" x1="473" y1="516.405" x2="473" y2="642.405" gradientUnits="userSpaceOnUse">
<stop stop-color="#6AE9FF"/>
<stop offset="1" stop-color="#00C2FF"/>
</linearGradient>
</defs>
</svg>
