<svg width="946" height="946" viewBox="0 0 946 946" fill="none" xmlns="http://www.w3.org/2000/svg">
<path fill-rule="evenodd" clip-rule="evenodd" d="M240 320C240 275.817 275.817 240 320 240H626C670.183 240 706 275.817 706 320V626C706 670.183 670.183 706 626 706H320C275.817 706 240 670.183 240 626V320ZM358.647 336.994C353.384 336.994 349.118 341.26 349.118 346.523V473.582H368.176V346.523C368.176 341.26 363.91 336.994 358.647 336.994ZM577.824 346.523C577.824 341.26 582.09 336.994 587.353 336.994C592.616 336.994 596.882 341.26 596.882 346.523V473.582H577.824V346.523ZM558.765 473.582V349.7C558.765 344.437 554.498 340.17 549.235 340.17C543.972 340.17 539.706 344.437 539.706 349.7V473.582H558.765ZM520.647 387.817V473.582H501.588V387.817C501.588 382.554 505.855 378.288 511.118 378.288C516.381 378.288 520.647 382.554 520.647 387.817ZM482.529 473.582V410.052C482.529 404.79 478.263 400.523 473 400.523C467.737 400.523 463.471 404.79 463.471 410.052V473.582H482.529ZM444.412 387.817V473.582H425.353V387.817C425.353 382.554 429.619 378.288 434.882 378.288C440.145 378.288 444.412 382.554 444.412 387.817ZM406.294 473.582V349.7C406.294 344.437 402.028 340.17 396.765 340.17C391.502 340.17 387.235 344.437 387.235 349.7V473.582H406.294ZM320.529 363.464C315.266 363.464 311 367.731 311 372.994V461.935C311 467.198 315.266 471.464 320.529 471.464C325.792 471.464 330.059 467.198 330.059 461.935V372.994C330.059 367.731 325.792 363.464 320.529 363.464ZM615.941 372.994C615.941 367.731 620.208 363.464 625.471 363.464C630.734 363.464 635 367.731 635 372.994V461.935C635 467.198 630.734 471.464 625.471 471.464C620.208 471.464 615.941 467.198 615.941 461.935V372.994ZM349.117 488.405V495.817C349.117 501.08 353.384 505.346 358.647 505.346C363.91 505.346 368.176 501.08 368.176 495.817V488.405H349.117ZM387.235 488.405V534.993C387.235 540.256 391.501 544.523 396.764 544.523C402.027 544.523 406.294 540.256 406.294 534.993V488.405H387.235ZM425.352 572.052V488.405H444.411V572.052C444.411 577.315 440.145 581.582 434.882 581.582C429.619 581.582 425.352 577.315 425.352 572.052ZM463.47 488.405V604.876C463.47 610.139 467.737 614.405 473 614.405C478.262 614.405 482.529 610.139 482.529 604.876V488.405H463.47ZM501.588 572.052V488.405H520.647V572.052C520.647 577.315 516.38 581.582 511.117 581.582C505.854 581.582 501.588 577.315 501.588 572.052ZM539.705 488.405V534.993C539.705 540.256 543.972 544.523 549.235 544.523C554.498 544.523 558.764 540.256 558.764 534.993V488.405H539.705ZM577.823 495.817V488.405H596.882V495.817C596.882 501.08 592.615 505.346 587.352 505.346C582.09 505.346 577.823 501.08 577.823 495.817Z" fill="white"/>
</svg>
